<svg xmlns="http://www.w3.org/2000/svg" viewBox="0 0 195.75 31.97"><defs><style>.cls-1{fill:#951b81;}</style></defs><g id="Layer_2" data-name="Layer 2"><g id="Layer_1-2" data-name="Layer 1"><path class="cls-1" d="M14.17,5a1,1,0,0,1-.35.71,1.07,1.07,0,0,1-.59.3.76.76,0,0,1-.58-.18,1,1,0,0,1-.36-.68,5.63,5.63,0,0,0,0-.58,2,2,0,0,0-.15-.54,3.25,3.25,0,0,0-1.78-1.83,6.69,6.69,0,0,0-3.18-.69,6.16,6.16,0,0,0-3.42,1,3.28,3.28,0,0,0-1.34,2.7A2.78,2.78,0,0,0,3.08,7.1,7.11,7.11,0,0,0,4.81,8.52,18.67,18.67,0,0,0,7.09,9.69c.83.36,1.62.74,2.36,1.15a11.72,11.72,0,0,1,3.44,2.83,6.16,6.16,0,0,1,1.28,4A4.25,4.25,0,0,1,13.54,20a5.14,5.14,0,0,1-1.66,1.62,7.64,7.64,0,0,1-2.34.93,9.82,9.82,0,0,1-2.72.24A8.13,8.13,0,0,1,4,22.29a6.84,6.84,0,0,1-2.09-1.21A5.61,5.61,0,0,1,.56,19.44,4.77,4.77,0,0,1,0,17.64a.91.91,0,0,1,.14-.73.9.9,0,0,1,.52-.33.94.94,0,0,1,.62.13,1.08,1.08,0,0,1,.45.61A5.6,5.6,0,0,0,3.37,20a4.65,4.65,0,0,0,3.31,1.11,12.35,12.35,0,0,0,1.85-.14,6.62,6.62,0,0,0,1.8-.52,3.61,3.61,0,0,0,1.33-1,2.53,2.53,0,0,0,.53-1.65,5.94,5.94,0,0,0-.27-1.91,4.94,4.94,0,0,0-.72-1.39,5.94,5.94,0,0,0-1.1-1.08,15.64,15.64,0,0,0-1.44-.95,19.46,19.46,0,0,0-2.47-1.32,21.62,21.62,0,0,1-2.61-1.4A9.24,9.24,0,0,1,1.51,7.89,3.8,3.8,0,0,1,.67,5.37a7.23,7.23,0,0,1,.07-1A5,5,0,0,1,1,3.24,4.37,4.37,0,0,1,3.29.85,8.8,8.8,0,0,1,6.79,0,12.1,12.1,0,0,1,9.5.24a7.08,7.08,0,0,1,2.33.9,5.19,5.19,0,0,1,1.63,1.6A4.66,4.66,0,0,1,14.17,5Z"/><path class="cls-1" d="M23.09,7a.75.75,0,0,1,1.35.47,1.65,1.65,0,0,1-.12.9,4.37,4.37,0,0,1,1,.22,6.36,6.36,0,0,1,3.37,2.79,10.43,10.43,0,0,1,1.2,4.33,7.78,7.78,0,0,1-.34,3,6.56,6.56,0,0,1-3.51,4,6.28,6.28,0,0,1-2.74.6,7.16,7.16,0,0,1-2.91-.56,6.12,6.12,0,0,1-2.13-1.53,6.56,6.56,0,0,1-1.29-2.3,9.37,9.37,0,0,1-.43-2.92,10.88,10.88,0,0,1,.39-3.08A6.81,6.81,0,0,1,18,10.55,6.6,6.6,0,0,1,19.78,9,9.77,9.77,0,0,1,22,8a1.18,1.18,0,0,0,.62-.45C22.79,7.35,23,7.14,23.09,7Zm1.12,3a2.08,2.08,0,0,1-.56-.27,2.74,2.74,0,0,1-.41-.34l-.79.29a6.06,6.06,0,0,0-3.21,2.18,7.35,7.35,0,0,0-1,4.16,7.32,7.32,0,0,0,.29,2,5.59,5.59,0,0,0,.88,1.8A4.5,4.5,0,0,0,21,21.05a4.83,4.83,0,0,0,2.23.48,4.64,4.64,0,0,0,2.16-.47,4.41,4.41,0,0,0,1.55-1.24,5.28,5.28,0,0,0,.92-1.8,7.05,7.05,0,0,0,.27-2.18A6.81,6.81,0,0,0,27,11.94,5.71,5.71,0,0,0,24.21,9.9Z"/><path class="cls-1" d="M46.17,18.69a7.36,7.36,0,0,0,.16,1.58,1.39,1.39,0,0,0,.88,1.05.94.94,0,0,1,.76.79.8.8,0,0,1-.11.54.71.71,0,0,1-.57.25,3.2,3.2,0,0,1-1-.09,1.9,1.9,0,0,1-.86-.52,3.42,3.42,0,0,1-.83-1.55,8.45,8.45,0,0,1-.18-1.8c0-.79,0-1.54.06-2.23a18.45,18.45,0,0,0,0-2c0-.67-.09-1.33-.13-2A4.77,4.77,0,0,0,44,11.06a2.56,2.56,0,0,0-1-1.21,3.81,3.81,0,0,0-2-.45,3.12,3.12,0,0,0-1.53.43,8.28,8.28,0,0,0-1.49,1.1,11,11,0,0,0-1.35,1.51,19.78,19.78,0,0,0-1.13,1.68c0,1.15,0,2.22,0,3.22s0,1.77,0,2.32A9.2,9.2,0,0,1,35,22.31c-.2.58-.44.85-.7.81s-.4-.34-.56-.87a7.39,7.39,0,0,1-.16-2.34c0-.93,0-1.87.07-2.81s0-1.81,0-2.64,0-1.57,0-2.22,0-1.15,0-1.51a3.08,3.08,0,0,0-.27-1.11A1.78,1.78,0,0,0,32.71,9q-.48-.29-.51-.48a1.21,1.21,0,0,1,0-.38.43.43,0,0,1,.38-.4,1.67,1.67,0,0,1,.63,0A3.05,3.05,0,0,1,33.8,8a3.72,3.72,0,0,1,.85.65,2.21,2.21,0,0,1,.5.81,3.08,3.08,0,0,1,.18.84l0,.8a9.83,9.83,0,0,1,2.32-2.22,6.75,6.75,0,0,1,3.19-1.13,4.7,4.7,0,0,1,2.54.43,4.35,4.35,0,0,1,1.65,1.51A6.62,6.62,0,0,1,46,12a14.81,14.81,0,0,1,.27,2.9q0,.51,0,1.35C46.18,16.79,46.17,17.61,46.17,18.69Z"/><path class="cls-1" d="M64.35,2.74c0,2.14.08,4.28.16,6.43s.11,4.26.09,6.35c0,1.06,0,2.05,0,3A9.87,9.87,0,0,1,64.35,21a3.66,3.66,0,0,1-1,1.8,3.61,3.61,0,0,1-2.18.85,7.31,7.31,0,0,1-.77,0,5.48,5.48,0,0,1-1-.11,5.23,5.23,0,0,1-1.06-.34,3.27,3.27,0,0,1-.92-.63,1.14,1.14,0,0,1-.41-.67,1.33,1.33,0,0,1,0-.72.61.61,0,0,1,.38-.4q.27-.09.63.27a2.48,2.48,0,0,0,1,.76,3.12,3.12,0,0,0,1.33.29A2.1,2.1,0,0,0,62,21.48a3.45,3.45,0,0,0,.74-1.59,8.7,8.7,0,0,0,.16-2.1c0-.77,0-1.5,0-2.2q-.08-2.91-.15-6.23c0-2.2-.07-4.39-.07-6.55l-.52,0a1.11,1.11,0,0,1-.38,0l-1.57-.16a2.75,2.75,0,0,1-1.31-.45c-.43-.34-.59-.61-.48-.83s.35-.3.73-.25l2.23.22h.6a10.05,10.05,0,0,0,1.1,0l1.24,0a7.37,7.37,0,0,0,1.06-.09,3.32,3.32,0,0,0,.79-.2A1.85,1.85,0,0,1,66.83.9a.93.93,0,0,1,.53.17.62.62,0,0,1,.23.55.8.8,0,0,1-.36.69,3.26,3.26,0,0,1-1.48.32Z"/><path class="cls-1" d="M75.72,7a.75.75,0,0,1,1.35.47,1.65,1.65,0,0,1-.12.9,4.37,4.37,0,0,1,1,.22,6.36,6.36,0,0,1,3.37,2.79,10.43,10.43,0,0,1,1.2,4.33,7.78,7.78,0,0,1-.34,3,6.56,6.56,0,0,1-3.51,4,6.28,6.28,0,0,1-2.74.6A7.16,7.16,0,0,1,73,22.63a6.12,6.12,0,0,1-2.13-1.53,6.56,6.56,0,0,1-1.29-2.3,9.37,9.37,0,0,1-.43-2.92,10.88,10.88,0,0,1,.39-3.08,6.81,6.81,0,0,1,1.14-2.25A6.6,6.6,0,0,1,72.41,9a9.77,9.77,0,0,1,2.23-1,1.18,1.18,0,0,0,.62-.45C75.42,7.35,75.58,7.14,75.72,7Zm1.12,3a2.08,2.08,0,0,1-.56-.27,2.74,2.74,0,0,1-.41-.34l-.79.29a6.06,6.06,0,0,0-3.21,2.18,7.35,7.35,0,0,0-1,4.16,7.32,7.32,0,0,0,.29,2,5.59,5.59,0,0,0,.88,1.8,4.5,4.5,0,0,0,1.53,1.3,4.83,4.83,0,0,0,2.23.48A4.64,4.64,0,0,0,78,21.06a4.41,4.41,0,0,0,1.55-1.24,5.28,5.28,0,0,0,.92-1.8,7.05,7.05,0,0,0,.27-2.18,6.81,6.81,0,0,0-1.12-3.9A5.71,5.71,0,0,0,76.84,9.9Z"/><path class="cls-1" d="M98.8,18.69A7.36,7.36,0,0,0,99,20.27a1.39,1.39,0,0,0,.88,1.05.94.94,0,0,1,.76.79.8.8,0,0,1-.11.54.71.71,0,0,1-.57.25,3.2,3.2,0,0,1-1-.09,1.9,1.9,0,0,1-.86-.52,3.42,3.42,0,0,1-.83-1.55,8.45,8.45,0,0,1-.18-1.8c0-.79,0-1.54.06-2.23a16.17,16.17,0,0,0,0-2c0-.67-.09-1.33-.13-2a4.77,4.77,0,0,0-.38-1.71,2.56,2.56,0,0,0-1-1.21,3.81,3.81,0,0,0-2-.45A3.12,3.12,0,0,0,92,9.83a8.28,8.28,0,0,0-1.49,1.1,11,11,0,0,0-1.35,1.51A19.78,19.78,0,0,0,88,14.12c0,1.15,0,2.22,0,3.22s0,1.77,0,2.32a8.86,8.86,0,0,1-.34,2.65c-.2.58-.44.85-.7.81s-.4-.34-.56-.87a7.71,7.71,0,0,1-.16-2.34c0-.93,0-1.87.07-2.81s0-1.81,0-2.64,0-1.57,0-2.22,0-1.15-.05-1.51A3.08,3.08,0,0,0,86,9.62,1.78,1.78,0,0,0,85.34,9c-.32-.19-.48-.35-.51-.48a1.21,1.21,0,0,1,0-.38.44.44,0,0,1,.38-.4,1.67,1.67,0,0,1,.63,0,3.05,3.05,0,0,1,.59.22,3.72,3.72,0,0,1,.85.65,2.21,2.21,0,0,1,.5.81,3.08,3.08,0,0,1,.18.84l0,.8a9.83,9.83,0,0,1,2.32-2.22,6.79,6.79,0,0,1,3.19-1.13,4.7,4.7,0,0,1,2.54.43A4.35,4.35,0,0,1,97.7,9.65,6.62,6.62,0,0,1,98.6,12a14.81,14.81,0,0,1,.27,2.9q0,.51,0,1.35C98.81,16.79,98.8,17.61,98.8,18.69Z"/><path class="cls-1" d="M113.7,21a8.68,8.68,0,0,1-2.28,1.55,6.28,6.28,0,0,1-2.65.57,6.69,6.69,0,0,1-3.36-.74,5.68,5.68,0,0,1-2.07-1.9,7.15,7.15,0,0,1-1-2.56,11.85,11.85,0,0,1-.23-2.68,7.94,7.94,0,0,1,.52-2.9A7.44,7.44,0,0,1,104,10a6.2,6.2,0,0,1,2.07-1.51,5.21,5.21,0,0,1,2.47-.45,6.78,6.78,0,0,1,3.06,1,7.38,7.38,0,0,1,2.08,2.05v-.93A2.7,2.7,0,0,0,113.42,9a1.9,1.9,0,0,0-.62-.61c-.31-.17-.48-.33-.5-.47a1.34,1.34,0,0,1,0-.4.43.43,0,0,1,.38-.39,1.17,1.17,0,0,1,.59,0,4.43,4.43,0,0,1,.61.21,3.43,3.43,0,0,1,.87.69,2,2,0,0,1,.5.77,3.2,3.2,0,0,1,.18.88c0,.24,0,.8.06,1.66s0,1.94,0,3.22v4.34c0,1.61,0,3.26,0,5a11.18,11.18,0,0,1-.34,2.77A6.4,6.4,0,0,1,114,29a5.56,5.56,0,0,1-1.93,1.55,7,7,0,0,1-2.82.64,8.26,8.26,0,0,1-2.09-.12,7.57,7.57,0,0,1-2-.65,4.64,4.64,0,0,1-1.55-1.22,3.5,3.5,0,0,1-.74-1.86.93.93,0,0,1,.15-.74.85.85,0,0,1,.52-.32.89.89,0,0,1,.61.11.93.93,0,0,1,.45.59A2.66,2.66,0,0,0,106.29,29a7,7,0,0,0,3,.4A5.73,5.73,0,0,0,111,29a3.62,3.62,0,0,0,1.4-1,5.13,5.13,0,0,0,1-1.77,8.51,8.51,0,0,0,.36-2.66Zm-5.14.29a5.69,5.69,0,0,0,1.81-.27,7.36,7.36,0,0,0,1.44-.65,6,6,0,0,0,1.1-.83,8.48,8.48,0,0,0,.79-.85v-4.5a8.8,8.8,0,0,0-2.3-3.31,4.47,4.47,0,0,0-5-.68,3.78,3.78,0,0,0-1.36,1.24,6,6,0,0,0-.8,1.75,8.17,8.17,0,0,0-.3,2,7.4,7.4,0,0,0,.16,2.16,5.59,5.59,0,0,0,.79,1.87,4.71,4.71,0,0,0,1.46,1.38A5.15,5.15,0,0,0,108.56,21.32Z"/><path class="cls-1" d="M144.56,19.62a9.07,9.07,0,0,1-.36,2.65q-.33.89-.69.81c-.21,0-.4-.34-.56-.86a7.71,7.71,0,0,1-.16-2.34c0-.84,0-2,.06-3.51s0-3.07,0-4.7a7.92,7.92,0,0,1-.9.14c-.57,0-1.27.09-2.08.13l-2.61.11q-1.4,0-2.79.12c-.94.05-1.83.09-2.67.11,0,1.49,0,2.9,0,4.25s0,2.39,0,3.13a9.07,9.07,0,0,1-.36,2.65q-.33.87-.72.81t-.54-.87a7.77,7.77,0,0,1-.15-2.34c0-.62,0-1.42.06-2.39s0-2,0-3.13,0-2.26,0-3.42V7.74c0-1,0-1.83,0-2.55s0-1.2,0-1.44a2.81,2.81,0,0,0-.29-1.14,1.88,1.88,0,0,0-.65-.59c-.29-.19-.44-.36-.47-.5a1.34,1.34,0,0,1,0-.4A.42.42,0,0,1,129,.76a1.3,1.3,0,0,1,.62,0,3.73,3.73,0,0,1,.59.2,3,3,0,0,1,.85.66,2.36,2.36,0,0,1,.54.8,3.74,3.74,0,0,1,.18.86v1c0,.47,0,1,0,1.71s0,1.42,0,2.25V10.8h2.27l2.38-.06c.79,0,1.56-.05,2.3-.09s1.42-.08,2-.12a10.92,10.92,0,0,0,1.08-.22c.38-.1.72-.17,1-.22V7.71c0-.77,0-1.47,0-2.09s0-1.16,0-1.6,0-.75,0-.92A2.73,2.73,0,0,0,142.5,2a1.78,1.78,0,0,0-.61-.61c-.31-.19-.48-.35-.5-.48a.81.81,0,0,1,0-.38.43.43,0,0,1,.38-.4,1.17,1.17,0,0,1,.59,0,3.48,3.48,0,0,1,.61.22,3,3,0,0,1,.83.65,2.21,2.21,0,0,1,.54.81,3,3,0,0,1,.18.84c0,.24,0,.75,0,1.51s0,1.68,0,2.74,0,2.2,0,3.44v3.62c0,1.17,0,2.26,0,3.27S144.58,19,144.56,19.62Z"/><path class="cls-1" d="M158.85,10.44c.33-1.34.59-2.28.77-2.8s.51-.72,1-.58c.27.07.45.37.56.9a4.11,4.11,0,0,1-.2,2l-7.52,19.15A6,6,0,0,1,152,31.16a2.83,2.83,0,0,1-2,.81l-.7,0a3.18,3.18,0,0,1-.78-.18,1.85,1.85,0,0,1-.61-.4.92.92,0,0,1-.25-.68.48.48,0,0,1,.36-.47.8.8,0,0,1,.57,0,2.18,2.18,0,0,0,.72.11,2.38,2.38,0,0,0,1.25-.36,2.89,2.89,0,0,0,1-1.41l2.31-5.94a1,1,0,0,1-.27-.36c-.11-.19-.23-.4-.35-.63s-.23-.45-.34-.68-.18-.4-.23-.52L149,11.34a3.1,3.1,0,0,0-.56-1.08c-.3-.4-.59-.8-.86-1.18a6.88,6.88,0,0,1-.61-1c-.14-.28-.07-.44.19-.49a2.49,2.49,0,0,1,1.07.18,3.5,3.5,0,0,1,.95.59,4.4,4.4,0,0,1,.77.89,4.69,4.69,0,0,1,.53,1l4.32,10.44Z"/><path class="cls-1" d="M164.57,15.27c0-.75,0-1.36.06-1.84s0-.89,0-1.22,0-.63,0-.87,0-.5-.05-.79a2.44,2.44,0,0,0-.26-1.11,1.82,1.82,0,0,0-.64-.62q-.48-.29-.51-.48a1.21,1.21,0,0,1,0-.38.43.43,0,0,1,.38-.4,1.67,1.67,0,0,1,.63,0,3.05,3.05,0,0,1,.59.22,3.72,3.72,0,0,1,.85.65,2.21,2.21,0,0,1,.5.81,3.08,3.08,0,0,1,.18.84c.05.84.06,1.88,0,3.12s0,2.68.07,4.34a4.69,4.69,0,0,0,.79,2.5,3.39,3.39,0,0,0,2.59,1.2,6.52,6.52,0,0,0,2-.27,5.34,5.34,0,0,0,1.44-.68,6.89,6.89,0,0,0,1-.86l.76-.81c0-.22,0-.52,0-.9s0-.9,0-1.55V10.41a2.3,2.3,0,0,0-1-1.95c-.28-.16-.44-.32-.46-.46a2,2,0,0,1,0-.4.43.43,0,0,1,.38-.4,1.67,1.67,0,0,1,.63,0,3.05,3.05,0,0,1,.59.22,3.7,3.7,0,0,1,.85.68,1.82,1.82,0,0,1,.52.78,4,4,0,0,1,.16.88c0,.26,0,.5.06.7s0,.58,0,1.12,0,1.35,0,2.43,0,2.64-.06,4.68a9.91,9.91,0,0,0,.18,1.58,1.36,1.36,0,0,0,.9,1.05.93.93,0,0,1,.72.79.8.8,0,0,1-.11.54.66.66,0,0,1-.54.25,3.15,3.15,0,0,1-1-.09,1.9,1.9,0,0,1-.84-.52,2.73,2.73,0,0,1-.54-.74,4.08,4.08,0,0,1-.29-.81,8.76,8.76,0,0,1-2.32,1.69A6.29,6.29,0,0,1,170,23a5.86,5.86,0,0,1-3.17-.72,4.24,4.24,0,0,1-1.62-1.85,7,7,0,0,1-.57-2.52C164.56,17,164.55,16.13,164.57,15.27Z"/><path class="cls-1" d="M194,18.69a7.36,7.36,0,0,0,.16,1.58,1.39,1.39,0,0,0,.88,1.05.94.94,0,0,1,.76.79.8.8,0,0,1-.11.54.74.74,0,0,1-.58.25,3.14,3.14,0,0,1-1-.09,1.9,1.9,0,0,1-.86-.52,3.42,3.42,0,0,1-.83-1.55,8.45,8.45,0,0,1-.18-1.8c0-.79,0-1.54.05-2.23a14.4,14.4,0,0,0,0-2c0-.67-.08-1.33-.12-2a5,5,0,0,0-.38-1.71,2.68,2.68,0,0,0-1-1.21,3.81,3.81,0,0,0-2-.45,3.12,3.12,0,0,0-1.53.43,7.94,7.94,0,0,0-1.49,1.1,11,11,0,0,0-1.35,1.51c-.42.57-.8,1.12-1.14,1.68,0,1.15,0,2.22,0,3.22s0,1.77,0,2.32a9.2,9.2,0,0,1-.34,2.65c-.2.58-.44.85-.7.81s-.4-.34-.56-.87a7.39,7.39,0,0,1-.16-2.34c0-.93.05-1.87.07-2.81s0-1.81,0-2.64,0-1.57,0-2.22,0-1.15-.06-1.51a3.08,3.08,0,0,0-.27-1.11,1.63,1.63,0,0,0-.63-.62c-.31-.19-.48-.35-.5-.48a1.21,1.21,0,0,1,0-.38.43.43,0,0,1,.38-.4,1.67,1.67,0,0,1,.63,0,3.05,3.05,0,0,1,.59.22,4,4,0,0,1,.85.65,2.21,2.21,0,0,1,.5.81,3.08,3.08,0,0,1,.18.84l0,.8a9.64,9.64,0,0,1,2.32-2.22,6.71,6.71,0,0,1,3.19-1.13,4.66,4.66,0,0,1,2.53.43,4.31,4.31,0,0,1,1.66,1.51,6.62,6.62,0,0,1,.9,2.32,14.81,14.81,0,0,1,.27,2.9c0,.34,0,.79,0,1.35S194,17.61,194,18.69Z"/></g></g></svg>